<svg xmlns="http://www.w3.org/2000/svg" width="24" height="24" viewBox="0 0 24 24" fill="currentColor">
  <path d="M19.4,7.8c2.1,0,3.9-1.8,3.9-3.9S21.5,0,19.4,0s-3.9,1.8-3.9,3.9c0,0.4,0.1,0.8,0.2,1.1L7.9,9.7c-0.7-1-1.8-1.6-3.1-1.6
  c-2.1,0-3.9,1.8-3.9,3.9s1.8,3.9,3.9,3.9c1.3,0,2.4-0.6,3.1-1.6l7.8,4.6c-0.1,0.4-0.2,0.8-0.2,1.2c0,2.1,1.8,3.9,3.9,3.9
  s3.9-1.8,3.9-3.9s-1.8-3.9-3.9-3.9c-1.3,0-2.4,0.6-3.1,1.6l-7.8-4.7c0.1-0.4,0.2-0.7,0.2-1.1s-0.1-0.8-0.2-1.1l7.8-4.6
  C16.9,7.2,18.1,7.8,19.4,7.8z M19.4,17.5c1.4,0,2.6,1.2,2.6,2.6c0,1.4-1.2,2.6-2.6,2.6c-1.4,0-2.6-1.2-2.6-2.6
  C16.8,18.7,17.9,17.5,19.4,17.5z M4.8,14.6c-1.4,0-2.6-1.2-2.6-2.6s1.2-2.6,2.6-2.6s2.6,1.2,2.6,2.6S6.2,14.6,4.8,14.6z M19.4,1.3
  c1.4,0,2.6,1.2,2.6,2.6s-1.2,2.6-2.6,2.6c-1.4,0-2.6-1.2-2.6-2.6S17.9,1.3,19.4,1.3z"/>
</svg>
