<svg xmlns="http://www.w3.org/2000/svg" width="" height="" viewBox="0 0 22 26" fill="currentColor">
  <path stroke="#000000" stroke-miterlimit="10" d="M21.2,16.1c-0.4-1.9-1.4-3.2-1.9-3.8c0,0,0,0-0.1-0.1L18.7,11
  c-0.1-0.2-0.2-0.5-0.1-0.7c0.1-0.5,0.1-1.1,0.1-1.7C18.5,4.4,15.5,1,10.9,1C6.1,1,3.3,4.4,3.2,8.6c0,0.7,0,1.3,0.2,2
  c0,0.2,0,0.5-0.1,0.7l-0.5,1c0,0-0.1,0-0.1,0.1c-0.5,0.6-1.5,1.9-1.9,3.8c-0.2,0.8-0.2,1.7,0,2.5c0.1,0.6,0.3,1.1,0.6,1.2
  C2,19.8,3,18,3,18l0,0c0.5,3.2,3.9,5.7,8,5.7c4.1,0,7.5-2.5,8-5.7l0,0.1c0,0,1,1.8,1.7,1.8c0.3,0,0.5-0.5,0.6-1.1
  C21.4,17.8,21.4,16.9,21.2,16.1z"/>
  <path stroke="#000000" stroke-miterlimit="10" d="M4.9,21.4C3.8,21.8,3,22.4,3,23.1C3,24.1,4.8,25,6.9,25c1.7,0,3.2-0.6,3.7-1.4
  C8.3,23.5,6.3,22.7,4.9,21.4z"/>
  <ellipse stroke="#000000" stroke-miterlimit="10" cx="8.8" cy="6.5" rx="1.5" ry="2.1"/>
  <ellipse stroke="#000000" stroke-miterlimit="10" cx="9.3" cy="6.5" rx="0.6" ry="1.1"/>
  <ellipse stroke="#000000" stroke-miterlimit="10" cx="9.6" cy="6.2" rx="0.2" ry="0.4"/>
  <circle stroke="#000000" stroke-miterlimit="10" cx="9.1" cy="6.9" r="0.1"/>
  <ellipse stroke="#000000" stroke-miterlimit="10" cx="13" cy="6.5" rx="1.5" ry="2.1"/>
  <path stroke="#000000" stroke-miterlimit="10" d="M12.3,7l0.1-0.7c0-0.1,0-0.1,0.1-0.2c0.1-0.1,0.2-0.3,0.4-0.3
    c0.2,0,0.3,0.1,0.3,0.2c0.1,0.1,0.1,0.2,0.1,0.3l0.1,0.8"/>
  <path stroke="#000000" stroke-miterlimit="10" d="M13.2,7.2c-0.1,0-0.1-0.1-0.1-0.1L13,6.3c0-0.1,0-0.2-0.1-0.2
    C12.9,6,12.8,6,12.8,6c-0.1,0-0.2,0.1-0.2,0.2c0,0,0,0.1,0,0.1L12.4,7c0,0.1-0.1,0.2-0.1,0.2c-0.1,0-0.2-0.1-0.2-0.2l0.1-0.7
    c0-0.1,0-0.2,0.1-0.3c0.1-0.2,0.3-0.4,0.5-0.4c0.2,0,0.4,0.1,0.5,0.2c0.1,0.1,0.1,0.2,0.1,0.4L13.4,7C13.4,7.1,13.4,7.2,13.2,7.2
    C13.2,7.2,13.2,7.2,13.2,7.2z"/>
  <path stroke="#000000" stroke-miterlimit="10" d="M15.9,10.4c0-0.3-0.4-0.4-0.4-0.4c-2.4-0.9-4.4-0.9-4.6-0.9c-0.2,0-2.2,0-4.6,0.9
  c0,0-0.4,0.1-0.4,0.4c0,0.3,0.3,0.6,0.9,0.9c0.6,0.3,3,1.8,4.1,1.8c1.1,0,3.5-1.4,4.1-1.8C15.6,11,15.9,10.6,15.9,10.4z"/>
  <path stroke="#000000" stroke-miterlimit="10" d="M14.9,10.4C14.9,10.4,14.9,10.4,14.9,10.4c-0.3,0.2-1.6,1.3-4,1.3
  c-2.4,0-3.7-1-4-1.3c0,0,0,0,0,0s-0.1,0,0.1,0.2c0.4,0.4,1.4,0.9,1.4,0.9s0.6,0.4,1.4,0.8c0.7,0.4,1.2,0.3,1.2,0.3s0.5,0,1.2-0.3
  c0.8-0.4,1.4-0.8,1.4-0.8s1-0.5,1.4-0.9C15,10.4,14.9,10.4,14.9,10.4z"/>
  <path stroke="#000000" stroke-miterlimit="10" d="M10.9,12.6c0,0,0.5,0,1.2-0.3c0.1,0,0.1-0.1,0.2-0.1l-0.1,0
    c-0.9,0.1-1.8,0.1-2.7,0l0,0c0.1,0,0.1,0.1,0.2,0.1C10.5,12.6,10.9,12.6,10.9,12.6z"/>
  <path stroke="#000000" stroke-miterlimit="10" d="M14,15.7c-1.8,0.4-3.7,0.5-5.5,0.1v2.6c0,0,0,0.1,0,0.1c0,0,0,0,0,0
    c0,0.2-0.2,0.4-0.4,0.4c-0.2,0-0.4,0-0.6,0l-0.9-0.1c-0.3,0-0.6-0.1-0.9-0.3c-0.2-0.1-0.2-0.1-0.2-0.1c-0.1-0.1-0.2-0.3-0.2-0.4
    c0-0.2,0-0.3,0-0.5l0-0.4c0-0.5,0.1-1,0.2-1.5l0.1-0.7c-0.3-0.2-0.7-0.3-1-0.5c-0.2,0.7-0.3,1.5-0.3,2.3c0,3.6,2.9,6.6,6.5,6.6
    s6.5-2.9,6.5-6.6c0-0.8-0.1-1.6-0.3-2.3C16,15,14.9,15.4,14,15.7z"/>
  <path stroke="#000000" stroke-miterlimit="10" d="M18.7,10.2c-0.2-0.2-2.5,3.4-7.8,3.4c-5.3,0-7.5-3.5-7.7-3.4
  c-0.2,0.2-0.9,1.3-0.8,2.2c0,0.1,0,0.1,0.1,0.2c1,1,2.1,1.7,3.2,2.2l-0.1,0.7c-0.1,0.5-0.1,1-0.2,1.5l0,0.4c0,0.2,0,0.3,0,0.5
  c0,0.2,0.1,0.3,0.2,0.4c0,0,0.1,0.1,0.2,0.1c0.3,0.1,0.6,0.2,0.9,0.3L7.5,19c0.2,0,0.4,0,0.6,0c0.2,0,0.4-0.2,0.4-0.4c0,0,0,0,0,0
  c0,0,0-0.1,0-0.1v-2.6c1.8,0.4,3.7,0.3,5.5-0.1c1.6-0.4,3.6-1.2,5.4-3c0-0.1,0.1-0.1,0.1-0.2C19.6,11.6,19,10.4,18.7,10.2z"/>
  <path stroke="#000000" stroke-miterlimit="10" d="M4.9,21.4C3.8,21.7,3,22.3,3,23c0,1,1.7,1.8,3.9,1.8c1.6,0,3-0.5,3.6-1.1
  C8.3,23.5,6.3,22.7,4.9,21.4z"/>
  <path stroke="#000000" stroke-miterlimit="10" d="M17,21.4c-1.4,1.3-3.4,2.1-5.6,2.2c0.5,0.8,1.9,1.4,3.7,1.4c2.1,0,3.9-0.9,3.9-1.9
  C19,22.4,18.2,21.8,17,21.4z"/>
  <path stroke="#000000" stroke-miterlimit="10" d="M17,21.4c-1.4,1.3-3.3,2.1-5.5,2.2c0.6,0.7,2,1.1,3.6,1.1c2.1,0,3.9-0.8,3.9-1.8
  C19,22.3,18.2,21.7,17,21.4z"/>
</svg>
